<svg width="162" height="40" viewBox="0 0 162 40" fill="none" xmlns="http://www.w3.org/2000/svg">
<path d="M56.1178 33.7879C56.9754 31.5086 59.174 29.8757 61.7536 29.8757C64.3333 29.8757 66.5318 31.5086 67.3894 33.7879H71.9089L64.5784 13.3902C64.381 12.8527 63.8705 12.4921 63.2987 12.4921H60.2426C59.6708 12.4921 59.1536 12.8527 58.963 13.3902L51.6324 33.7879H56.1178ZM58.6771 26.3173L61.7536 17.418L64.3605 24.9498L65.1841 27.3447C64.1223 26.916 62.9652 26.6779 61.7536 26.6779C60.5421 26.6779 59.3918 26.916 58.3299 27.3447L58.6839 26.3241L58.6771 26.3173Z" fill="currentColor"/>
<path d="M99.4211 32.5973C97.7535 31.6652 96.433 30.3657 95.4597 28.7124C94.4864 27.0591 93.9963 25.1812 93.9963 23.0925C93.9963 21.0037 94.4864 19.1599 95.4597 17.4998C96.433 15.8465 97.7535 14.5469 99.4211 13.6148C101.089 12.6827 102.92 12.2132 104.907 12.2132C106.895 12.2132 108.753 12.6827 110.407 13.6148C112.061 14.5469 113.374 15.8465 114.341 17.4998C115.307 19.1531 115.791 21.0173 115.791 23.0925C115.791 25.1676 115.307 27.0591 114.341 28.7124C113.374 30.3657 112.061 31.6652 110.393 32.5973C108.726 33.5295 106.895 33.9989 104.907 33.9989C102.92 33.9989 101.089 33.5295 99.4211 32.5973ZM108.29 29.3179C109.263 28.7396 110.026 27.9095 110.577 26.8345C111.128 25.7595 111.401 24.5077 111.401 23.0857C111.401 21.6637 111.128 20.4186 110.577 19.3504C110.026 18.2822 109.263 17.4657 108.29 16.8942C107.317 16.3227 106.187 16.0438 104.907 16.0438C103.627 16.0438 102.491 16.3295 101.511 16.8942C100.531 17.4589 99.7546 18.2822 99.21 19.3504C98.6587 20.4186 98.3865 21.6637 98.3865 23.0857C98.3865 24.5077 98.6587 25.7595 99.21 26.8345C99.7614 27.9095 100.524 28.7396 101.511 29.3179C102.498 29.8962 103.627 30.1888 104.907 30.1888C106.187 30.1888 107.317 29.8962 108.29 29.3179Z" fill="currentColor"/>
<path d="M119.65 17.4928C120.596 15.8394 121.883 14.5467 123.523 13.6214C125.157 12.6961 126.994 12.2335 129.023 12.2335C131.398 12.2335 133.481 12.8458 135.271 14.0637C137.061 15.2815 138.307 16.9689 139.021 19.1257H135.611C134.788 19.1257 133.998 18.7719 133.501 18.1187C133.1 17.588 132.617 17.1662 132.058 16.8396C131.174 16.3293 130.153 16.0776 128.995 16.0776C127.757 16.0776 126.654 16.3633 125.687 16.9485C124.721 17.5268 123.972 18.3432 123.435 19.4046C122.897 20.466 122.625 21.6975 122.625 23.1195C122.625 24.5415 122.897 25.7594 123.435 26.8207C123.972 27.8821 124.728 28.7122 125.687 29.2905C126.647 29.8688 127.757 30.1614 128.995 30.1614C130.153 30.1614 131.174 29.9028 132.058 29.3857C132.617 29.0592 133.1 28.6305 133.501 28.0999C133.998 27.4467 134.795 27.0861 135.618 27.0861H139.028C138.314 29.2633 137.075 30.9506 135.291 32.1617C133.515 33.3728 131.425 33.9783 129.023 33.9783C126.988 33.9783 125.157 33.5156 123.523 32.5903C121.889 31.665 120.596 30.3791 119.65 28.7326C118.704 27.0861 118.234 25.2151 118.234 23.1263C118.234 21.0375 118.704 19.1597 119.65 17.5064V17.4928Z" fill="currentColor"/>
<path d="M146.209 33.7879C147.067 31.5086 149.265 29.8757 151.845 29.8757C154.424 29.8757 156.623 31.5086 157.48 33.7879H162L154.669 13.3902C154.472 12.8527 153.961 12.4921 153.39 12.4921H150.334C149.762 12.4921 149.245 12.8527 149.054 13.3902L141.723 33.7879H146.209ZM148.768 26.3173L151.845 17.418L154.452 24.9498L154.921 26.3173L155.275 27.3447C154.213 26.916 153.056 26.6779 151.845 26.6779C150.633 26.6779 149.483 26.916 148.421 27.3447L148.775 26.3241L148.768 26.3173Z" fill="currentColor"/>
<path d="M92.2263 12.5125L84.7528 32.8898C84.5554 33.4273 84.0449 33.7811 83.4731 33.7811H80.1924C79.6207 33.7811 79.1102 33.4273 78.9128 32.8898L71.4392 12.5125H75.0399C75.6184 12.5125 76.1357 12.8799 76.3263 13.4311L81.86 29.4267L87.3665 13.4311C87.5571 12.8799 88.0744 12.5125 88.6529 12.5125H92.2263Z" fill="currentColor"/>
<path d="M21.262 9.39626L20.9965 9.37587C15.388 9.12413 9.80662 8.18523 4.40905 6.58634C6.39655 8.83839 12.046 15.5129 15.1906 22.1193L15.2655 22.2758C17.6545 26.9704 19.5127 31.9304 20.7515 37.074C21.9563 33.5973 24.6925 26.3989 28.4088 20.9695L28.5585 20.745C31.4922 16.132 34.9703 11.866 38.9453 8.07633C35.2902 8.7567 27.7622 9.92015 21.2688 9.39626H21.262Z" fill="currentColor"/>
<path d="M28.5175 23.9496C25.6179 28.7939 23.4534 34.4546 22.3576 37.632L21.9492 38.8091C22.5073 40.0133 24.0933 40.4148 25.1415 39.4963C27.2787 37.6388 29.4091 35.7814 31.5464 33.9172C32.1385 33.4001 32.3836 32.5972 32.1794 31.842C31.3217 28.651 30.4641 25.4601 29.6065 22.2691L28.5243 23.97L28.5106 23.9496H28.5175Z" fill="currentColor"/>
<path d="M1.80893 6.20548C0.679049 6.34156 -0.198975 7.41656 0.0392529 8.63443C0.583774 11.4104 1.12826 14.1931 1.66598 16.969C1.81572 17.7379 2.39431 18.357 3.14983 18.5543C6.3557 19.4116 9.56835 20.2689 12.7742 21.1262C9.57515 15.2001 4.66767 9.44408 3.13621 7.70232L1.80893 6.19871V6.20548Z" fill="currentColor"/>
<path d="M23.9096 7.81812C29.4705 7.91337 35.3649 7.00846 38.6253 6.40292L40.218 6.11037C41.13 5.02857 40.7012 3.33442 39.3263 2.86496C36.6513 1.94645 33.9696 1.02795 31.2946 0.109438C30.5527 -0.142301 29.7291 0.0481843 29.1778 0.59929C26.8092 2.9738 24.4337 5.34153 22.065 7.71605L23.93 7.79769L23.9164 7.82489L23.9096 7.81812Z" fill="currentColor"/>
</svg>
